<svg xmlns="http://www.w3.org/2000/svg" width="1080" height="720" viewBox="0 0 1080 720">
<g>
<path d="M 413.19 431.97 C409.43,433.01 408.19,433.06 404.31,432.30 C401.12,431.68 395.28,424.75 394.03,420.10 C393.28,417.33 393.03,389.89 393.22,331.79 C393.49,251.86 393.60,247.32 395.36,244.09 C397.94,239.36 399.81,237.56 405.00,234.85 C409.42,232.54 409.97,232.50 437.50,232.58 C438.69,232.58 439.84,232.58 440.94,232.59 C459.59,232.63 465.94,232.65 470.47,235.52 C473.07,237.18 475.08,239.79 478.47,243.90 C485.17,251.99 487.63,254.07 494.50,257.42 C498.29,259.27 501.46,259.39 555.74,259.78 L 612.98 260.19 L 615.49 263.17 C616.87,264.81 618.00,266.57 618.00,267.08 C618.00,267.58 613.84,268.04 608.75,268.08 C595.60,268.20 588.44,269.29 585.25,271.63 C583.74,272.75 580.53,277.00 578.13,281.08 C569.37,295.95 567.09,298.78 561.71,301.46 L 556.61 304.00 L 510.54 304.00 C465.65,304.00 464.37,304.05 460.49,306.10 C450.98,311.12 447.45,317.27 443.02,336.50 C441.25,344.20 438.71,355.18 437.36,360.90 C436.02,366.62 433.61,377.20 432.01,384.40 C426.69,408.35 423.92,420.08 423.05,422.36 C421.49,426.48 416.92,430.93 413.19,431.97 ZM 526.76 414.03 C512.50,421.25 510.48,422.00 505.26,422.00 C498.21,421.99 493.50,419.44 491.44,414.51 C489.38,409.58 489.31,332.56 491.36,327.72 C493.87,321.80 496.31,320.50 504.86,320.53 C512.13,320.56 513.04,320.83 523.50,326.14 C529.55,329.21 541.47,335.54 550.00,340.20 C558.53,344.86 569.09,350.60 573.47,352.96 C583.43,358.31 587.00,360.22 588.28,363.14 C589.00,364.77 589.00,366.71 589.00,369.75 L 589.00 369.82 C589.00,378.61 586.93,381.69 577.21,387.34 C567.92,392.74 548.14,403.20 526.76,414.03 ZM 500.46 409.77 C504.56,414.64 507.43,414.15 522.01,406.12 C528.88,402.34 542.83,394.72 553.00,389.19 C575.85,376.77 579.00,374.33 579.00,368.99 C579.00,364.47 576.95,362.58 565.61,356.63 C561.82,354.64 558.22,352.62 557.61,352.14 C556.29,351.11 525.77,334.42 518.28,330.64 C511.21,327.06 506.01,327.13 501.85,330.84 L 498.67 333.69 L 498.20 370.11 L 497.74 406.53 ZM 439.36 280.25 C455.39,280.41 491.81,280.64 520.30,280.77 L 572.09 281.00 L 573.80 277.85 C574.73,276.12 576.78,273.20 578.35,271.35 L 581.21 268.00 L 411.91 268.00 L 409.39 270.52 C407.54,272.37 407.06,273.62 407.56,275.27 C409.01,280.00 408.70,279.96 439.36,280.25 ZM 411.00 300.71 C412.74,301.59 419.12,301.97 432.00,301.96 C448.29,301.96 451.02,301.72 454.86,299.98 C459.00,298.10 461.58,298.00 506.36,297.96 C543.50,297.92 554.31,297.62 557.32,296.55 C561.22,295.16 565.00,292.35 565.00,290.85 C565.00,290.38 530.46,290.01 488.25,290.03 C424.59,290.06 411.19,290.30 409.68,291.44 C406.97,293.50 407.77,299.08 411.00,300.71 ZM 599.07 444.99 C591.30,446.09 454.90,446.00 424.82,444.87 L 408.14 444.25 L 401.57 440.58 C397.96,438.56 395.00,436.45 395.00,435.89 C395.00,434.80 395.98,435.26 400.33,438.44 C403.15,440.49 403.68,440.50 506.08,440.50 C562.69,440.50 609.00,440.78 609.00,441.13 C609.00,442.77 605.72,444.05 599.07,444.99 ZM 608.84 430.84 C606.71,432.35 598.32,432.52 515.75,432.78 L 425.00 433.05 L 427.41 427.78 C428.74,424.87 430.30,420.70 430.88,418.50 C432.23,413.37 436.34,395.81 438.60,385.50 C439.56,381.10 440.79,377.05 441.32,376.50 C441.96,375.85 442.08,376.10 441.69,377.23 C441.35,378.17 440.17,383.57 439.05,389.23 C437.93,394.88 436.57,401.30 436.03,403.50 C433.20,415.04 435.82,422.68 444.00,426.72 L 448.50 428.94 L 529.84 429.06 C605.83,429.18 611.02,429.30 608.84,430.84 ZM 413.50 324.28 C415.15,324.53 421.63,324.68 427.89,324.62 L 439.28 324.50 L 440.60 319.50 C441.32,316.75 441.93,313.94 441.96,313.25 C441.99,312.30 438.40,312.00 427.22,312.00 C410.25,312.00 408.00,312.75 408.00,318.43 C408.00,322.27 409.29,323.64 413.50,324.28 ZM 409.20 345.80 C409.99,346.59 414.25,347.00 421.72,347.00 L 433.05 347.00 L 434.11 344.25 C434.70,342.74 435.42,340.04 435.72,338.25 L 436.26 335.00 L 423.70 335.00 C413.62,335.00 410.83,335.31 409.57,336.57 C407.72,338.43 407.49,344.09 409.20,345.80 ZM 441.53 223.80 C443.07,224.69 440.13,224.95 428.05,224.97 C416.72,224.99 412.90,224.70 413.71,223.89 C415.24,222.36 438.93,222.29 441.53,223.80 ZM 645.91 329.13 C645.98,334.92 645.62,337.07 644.43,338.06 C643.02,339.23 642.93,338.71 643.59,332.93 C644.79,322.27 645.82,320.59 645.91,329.13 Z" fill="rgb(1,5,15)"/>
<path d="M 413.19 431.97 C416.92,430.93 421.49,426.48 423.05,422.36 C423.92,420.08 426.69,408.35 432.01,384.40 C433.61,377.20 436.02,366.62 437.36,360.90 C438.71,355.18 441.25,344.20 443.02,336.50 C447.07,318.91 450.37,312.26 458.17,307.42 L 458.04 307.51 C451.38,312.01 448.06,317.40 446.34,326.52 C445.13,332.92 445.10,334.45 446.19,335.14 L 446.30 335.21 C447.04,335.68 447.57,336.02 448.02,335.93 C449.13,335.73 449.78,333.01 452.08,323.68 C453.57,317.67 458.19,312.60 463.51,311.12 C465.92,310.45 475.42,310.08 487.50,310.17 C500.29,310.28 505.34,310.58 501.50,311.00 C498.20,311.37 496.40,311.75 497.50,311.85 C498.99,311.98 499.16,312.25 498.18,312.87 C497.10,313.55 497.16,314.02 498.47,315.33 C500.01,316.87 502.43,317.73 511.53,319.97 C513.74,320.51 518.47,322.69 522.03,324.80 C524.43,326.23 530.83,329.80 538.29,333.88 C532.58,330.85 527.04,327.94 523.50,326.14 C513.04,320.83 512.13,320.56 504.86,320.53 C496.31,320.50 493.87,321.80 491.36,327.72 C489.31,332.56 489.38,409.58 491.44,414.51 C493.50,419.44 498.21,421.99 505.26,422.00 C510.48,422.00 512.50,421.25 526.76,414.03 C548.14,403.20 567.92,392.74 577.21,387.34 C586.93,381.69 589.00,378.61 589.00,369.82 L 589.00 369.75 C589.00,366.71 589.00,364.77 588.28,363.14 C587.80,362.04 586.99,361.08 585.62,360.02 C587.53,361.35 588.14,362.16 588.46,363.06 C588.65,363.58 588.74,364.13 588.92,364.84 C589.79,368.23 591.94,378.17 592.67,382.27 C592.85,383.24 596.36,387.45 600.47,391.64 C607.22,398.49 608.23,399.17 610.73,398.52 C614.27,397.61 617.55,397.53 622.19,398.26 C624.55,398.63 626.09,398.41 626.45,397.67 C626.76,397.03 626.80,400.26 626.53,404.86 C626.18,410.90 625.34,414.75 623.52,418.73 C620.13,426.14 620.23,427.22 624.25,426.84 C626.04,426.67 628.05,425.85 628.72,425.01 C629.68,423.82 629.68,424.23 628.72,426.94 C627.04,431.67 622.27,436.13 616.41,438.43 C613.71,439.49 610.38,441.17 609.00,442.16 C608.60,442.45 607.95,442.76 607.12,443.07 C608.37,442.49 609.00,441.84 609.00,441.13 C609.00,440.78 562.69,440.50 506.08,440.50 C403.68,440.50 403.15,440.49 400.33,438.44 C395.98,435.26 395.00,434.80 395.00,435.89 C395.00,436.45 397.96,438.56 401.57,440.58 L 404.91 442.44 C402.63,441.58 400.44,440.34 397.45,438.53 C393.29,436.03 388.53,428.54 386.55,421.41 C385.08,416.11 384.94,406.83 385.21,331.00 C385.49,251.75 385.62,246.20 387.35,241.75 C388.36,239.14 389.64,237.00 390.20,237.00 C390.76,237.00 390.97,236.35 390.66,235.57 C389.87,233.50 397.67,226.68 400.10,227.32 C401.15,227.59 402.00,227.46 402.00,227.03 C402.00,225.52 408.14,224.10 415.74,223.30 C414.66,223.47 413.94,223.66 413.71,223.89 C412.90,224.70 416.72,224.99 428.05,224.97 C440.13,224.95 443.07,224.69 441.53,223.80 C441.36,223.70 441.11,223.61 440.78,223.52 C445.22,223.99 451.24,224.51 456.00,224.82 C468.95,225.68 471.73,226.74 477.33,232.94 C482.04,238.16 482.13,239.71 477.43,234.75 C475.47,232.69 473.44,231.00 472.91,231.00 C470.93,231.00 470.84,234.06 472.77,235.75 C473.86,236.71 477.11,240.43 480.00,244.00 C485.84,251.22 489.77,254.78 495.00,257.58 C495.28,257.73 495.56,257.87 495.87,258.00 C495.37,257.82 494.94,257.63 494.50,257.42 C487.63,254.07 485.17,251.99 478.47,243.90 C475.08,239.79 473.07,237.18 470.47,235.52 C465.94,232.65 459.59,232.63 440.94,232.59 C439.84,232.58 438.69,232.58 437.50,232.58 C409.97,232.50 409.42,232.54 405.00,234.85 C399.81,237.56 397.94,239.36 395.36,244.09 C393.60,247.32 393.49,251.86 393.22,331.79 C393.03,389.89 393.28,417.33 394.03,420.10 C395.28,424.75 401.12,431.68 404.31,432.30 C408.19,433.06 409.43,433.01 413.19,431.97 ZM 500.46 409.77 L 497.74 406.53 L 498.20 370.11 L 498.67 333.69 L 498.81 333.56 L 498.90 357.33 C498.97,375.23 499.33,381.75 500.34,383.69 C501.66,386.20 501.76,386.05 503.81,378.51 C504.97,374.24 506.13,370.53 506.40,370.27 C506.86,369.81 511.33,372.68 515.33,375.99 C520.04,379.90 526.84,389.87 527.13,393.31 C527.30,395.28 527.12,397.22 526.72,397.61 C526.32,398.01 526.00,399.16 526.00,400.17 C526.00,402.57 527.59,402.50 529.73,400.00 C530.67,398.90 532.22,398.00 533.17,398.00 C535.17,398.00 543.75,394.02 552.79,389.31 C542.63,394.83 528.83,402.37 522.01,406.12 C507.43,414.15 504.56,414.64 500.46,409.77 ZM 439.36 280.25 C408.70,279.96 409.01,280.00 407.56,275.27 C407.06,273.62 407.54,272.37 409.39,270.52 L 411.91 268.00 L 581.21 268.00 L 578.35 271.35 C577.32,272.56 576.09,274.24 575.09,275.73 L 575.65 274.75 L 578.88 269.00 L 525.19 269.08 C495.66,269.12 472.10,269.40 472.82,269.69 C473.67,270.03 472.78,271.12 470.32,272.74 C464.40,276.65 463.51,278.16 466.24,279.68 C466.94,280.07 469.28,280.34 474.39,280.51 C460.03,280.42 447.23,280.33 439.36,280.25 ZM 608.84 430.84 C611.02,429.30 605.83,429.18 529.84,429.06 L 448.50 428.94 L 444.00 426.72 C435.82,422.68 433.20,415.04 436.03,403.50 C436.57,401.30 437.93,394.88 439.05,389.23 C440.17,383.57 441.35,378.17 441.69,377.23 C442.08,376.10 441.96,375.85 441.32,376.50 C440.79,377.05 439.56,381.10 438.60,385.50 C436.34,395.81 432.23,413.37 430.88,418.50 C430.30,420.70 428.74,424.87 427.41,427.78 L 425.00 433.05 L 515.75 432.78 C598.32,432.52 606.71,432.35 608.84,430.84 ZM 411.00 300.71 C407.77,299.08 406.97,293.50 409.68,291.44 C411.19,290.30 424.59,290.06 488.25,290.03 C500.53,290.03 512.16,290.05 522.48,290.11 C519.21,290.14 515.72,290.17 511.97,290.20 L 458.68 290.68 L 456.84 292.95 C455.83,294.20 455.00,295.59 455.00,296.04 C455.00,296.49 478.09,296.90 506.31,296.95 L 554.92 297.05 C549.71,297.72 536.99,297.93 506.36,297.96 C461.58,298.00 459.00,298.10 454.86,299.98 C451.02,301.72 448.29,301.96 432.00,301.96 C419.12,301.97 412.74,301.59 411.00,300.71 ZM 413.50 324.28 C409.29,323.64 408.00,322.27 408.00,318.43 C408.00,312.75 410.25,312.00 427.22,312.00 C438.40,312.00 441.99,312.30 441.96,313.25 C441.93,313.94 441.32,316.75 440.60,319.50 L 439.28 324.50 L 427.89 324.62 C421.63,324.68 415.15,324.53 413.50,324.28 ZM 409.20 345.80 C407.49,344.09 407.72,338.43 409.57,336.57 C410.83,335.31 413.62,335.00 423.70,335.00 L 436.26 335.00 L 435.72 338.25 C435.42,340.04 434.70,342.74 434.11,344.25 L 433.05 347.00 L 421.72 347.00 C414.25,347.00 409.99,346.59 409.20,345.80 ZM 359.03 317.19 C358.98,319.89 357.00,320.39 357.00,317.71 C357.00,315.00 354.64,311.92 351.14,310.06 L 348.78 308.81 L 352.27 305.93 C354.20,304.34 356.06,301.91 356.41,300.52 C357.24,297.20 358.48,297.33 359.96,300.90 C360.69,302.66 362.88,304.72 365.49,306.10 L 369.82 308.40 L 365.76 310.22 C361.34,312.20 359.08,314.54 359.03,317.19 ZM 454.51 404.05 C455.32,406.57 455.81,406.51 458.09,403.61 C459.12,402.30 461.21,400.91 462.73,400.52 L 465.50 399.82 L 461.82 397.92 C459.80,396.88 457.86,395.12 457.50,394.01 C457.15,392.91 456.48,392.00 456.00,392.00 C455.52,392.00 454.85,392.91 454.50,394.01 C454.14,395.12 452.30,396.82 450.40,397.80 L 446.94 399.58 L 450.42 400.83 C452.33,401.53 454.17,402.97 454.51,404.05 ZM 356.90 359.89 L 359.80 363.00 L 357.13 365.86 L 354.47 368.71 L 351.94 365.96 L 349.42 363.20 L 351.71 361.00 C352.97,359.78 354.00,358.34 354.00,357.79 C354.00,357.24 355.31,358.19 356.90,359.89 ZM 588.33 411.33 L 590.50 413.57 L 593.14 411.53 L 595.78 409.50 L 593.39 408.56 C592.07,408.04 590.95,406.91 590.88,406.06 C590.79,404.80 590.68,404.83 590.32,406.20 C590.07,407.14 589.04,408.17 588.01,408.50 C586.25,409.05 586.27,409.20 588.33,411.33 ZM 641.32 362.75 C640.65,370.30 640.51,370.77 639.62,368.46 C638.81,366.34 640.03,356.00 641.10,356.00 C641.55,356.00 641.65,359.04 641.32,362.75 ZM 463.20 369.45 C464.72,371.17 466.00,371.42 466.00,370.00 C466.00,369.45 466.69,369.00 467.54,369.00 C468.79,369.00 468.70,368.60 467.10,366.87 C465.27,364.92 464.98,364.87 463.50,366.36 C462.17,367.69 462.11,368.22 463.20,369.45 ZM 514.96 280.74 C516.73,280.73 518.56,280.73 520.46,280.72 L 572.36 280.50 L 572.09 281.00 L 520.30 280.77 C518.55,280.76 516.76,280.75 514.96,280.74 ZM 643.91 330.24 C643.80,331.06 643.70,331.96 643.59,332.93 C642.93,338.71 643.02,339.23 644.43,338.06 C644.62,337.90 644.78,337.72 644.93,337.50 C644.74,339.17 644.53,340.60 644.33,341.50 C642.82,348.25 641.69,342.57 643.04,335.01 C643.36,333.19 643.65,331.60 643.91,330.24 ZM 467.18 304.45 C472.81,304.02 484.12,304.00 510.50,304.00 ZM 557.59 303.51 L 561.71 301.46 C565.92,299.36 568.23,297.18 573.22,289.22 C568.63,296.60 566.59,298.68 563.00,300.82 L 558.50 303.50 ZM 434.94 222.88 C430.95,222.67 425.89,222.65 421.70,222.82 C426.32,222.56 431.03,222.54 434.94,222.88 ZM 564.67 291.74 C564.70,291.66 564.70,291.58 564.69,291.51 C564.62,291.16 564.16,290.88 563.16,290.66 C564.36,290.72 565.00,290.78 565.00,290.85 C565.00,291.11 564.88,291.41 564.67,291.74 ZM 574.71 353.62 C574.31,353.41 573.90,353.19 573.47,352.96 C570.45,351.33 564.49,348.10 558.28,344.72 C565.27,348.49 570.61,351.37 574.71,353.62 ZM 599.07 444.99 C599.74,444.89 600.38,444.80 600.98,444.69 C600.37,444.81 599.75,444.91 599.15,444.99 C595.42,445.51 563.28,445.77 527.20,445.77 C563.32,445.76 595.42,445.51 599.07,444.99 ZM 560.54 295.08 L 560.99 294.78 C562.02,294.07 562.94,293.47 563.60,292.95 C562.81,293.66 561.74,294.41 560.54,295.08 ZM 578.82 279.94 C580.60,277.06 582.67,274.25 584.15,272.67 C582.70,274.23 580.66,277.01 578.82,279.94 ZM 578.95 370.07 C578.98,369.71 579.00,369.33 579.00,368.93 L 579.00 368.99 C579.00,369.37 578.98,369.72 578.95,370.07 Z" fill="rgb(20,130,192)"/>
<path d="M 645.91 329.13 C645.83,321.37 644.97,322.05 643.91,330.24 C643.65,331.60 643.36,333.19 643.04,335.01 C641.96,341.06 642.47,345.90 643.49,344.15 C642.56,347.98 641.99,351.64 641.44,356.98 C641.37,356.36 641.26,356.00 641.10,356.00 C640.03,356.00 638.81,366.34 639.62,368.46 C639.81,368.95 639.96,369.31 640.09,369.51 C639.48,374.51 638.74,380.06 638.07,384.50 C636.92,392.20 635.31,403.00 634.51,408.50 C633.43,415.93 632.14,420.35 629.50,425.70 C629.03,426.65 628.58,427.51 628.15,428.30 C628.37,427.85 628.56,427.40 628.72,426.94 C629.68,424.23 629.68,423.82 628.72,425.01 C628.05,425.85 626.04,426.67 624.25,426.84 C620.23,427.22 620.13,426.14 623.52,418.73 C625.34,414.75 626.18,410.90 626.53,404.86 C626.80,400.26 626.76,397.03 626.45,397.67 C626.09,398.41 624.55,398.63 622.19,398.26 C617.55,397.53 614.27,397.61 610.73,398.52 C608.23,399.17 607.22,398.49 600.47,391.64 C596.36,387.45 592.85,383.24 592.67,382.27 C591.94,378.17 589.79,368.23 588.92,364.84 C588.74,364.13 588.65,363.58 588.46,363.06 C588.14,362.16 587.53,361.35 585.62,360.02 C583.54,358.40 580.17,356.56 574.71,353.62 C570.62,351.37 565.27,348.49 558.29,344.72 L 558.28 344.72 C555.49,343.20 552.65,341.65 550.00,340.20 C546.46,338.26 542.33,336.04 538.29,333.88 C530.83,329.80 524.43,326.23 522.03,324.80 C518.47,322.69 513.74,320.51 511.53,319.97 C502.43,317.73 500.01,316.87 498.47,315.33 C497.16,314.02 497.10,313.55 498.18,312.87 C499.16,312.25 498.99,311.98 497.50,311.85 C496.40,311.75 498.20,311.37 501.50,311.00 C505.34,310.58 500.29,310.28 487.50,310.17 C475.42,310.08 465.92,310.45 463.51,311.12 C458.19,312.60 453.57,317.67 452.08,323.68 C449.78,333.01 449.13,335.73 448.02,335.93 C447.57,336.02 447.04,335.68 446.30,335.21 L 446.19 335.14 C445.10,334.45 445.13,332.92 446.34,326.52 C448.06,317.40 451.38,312.01 458.04,307.51 L 458.17 307.42 C458.90,306.97 459.67,306.53 460.49,306.10 C462.08,305.26 463.24,304.75 467.18,304.45 L 510.50 304.00 L 556.61 304.00 L 557.59 303.51 L 558.50 303.50 L 563.00 300.82 C566.59,298.68 568.63,296.60 573.22,289.22 C574.62,286.99 576.22,284.32 578.13,281.08 C578.35,280.70 578.59,280.32 578.82,279.94 C578.90,279.81 578.98,279.68 579.06,279.55 C580.79,276.81 582.74,274.18 584.15,272.67 L 584.15 272.67 C584.57,272.21 584.95,271.86 585.25,271.63 C588.44,269.29 595.60,268.20 608.75,268.08 C613.84,268.04 618.00,267.58 618.00,267.08 C618.00,266.57 616.87,264.81 615.49,263.17 L 612.98 260.19 L 555.74 259.78 C507.74,259.44 499.71,259.30 495.87,258.00 C495.56,257.87 495.28,257.73 495.00,257.58 C489.77,254.78 485.84,251.22 480.00,244.00 C477.11,240.43 473.86,236.71 472.77,235.75 C470.84,234.06 470.93,231.00 472.91,231.00 C473.44,231.00 475.47,232.69 477.43,234.75 C482.13,239.71 482.04,238.16 477.33,232.94 C474.65,229.98 472.62,228.19 469.82,227.04 C472.98,228.30 475.26,230.31 478.37,233.74 C491.48,248.21 493.46,250.05 496.91,250.99 C498.99,251.56 524.04,252.08 556.50,252.24 L 612.50 252.50 L 616.13 254.76 C618.67,256.34 620.47,258.65 622.13,262.46 C623.66,265.97 625.21,268.05 626.50,268.31 C628.28,268.68 628.25,268.74 626.25,268.86 C625.01,268.94 624.00,269.58 624.00,270.30 C624.00,272.68 626.36,274.00 630.63,274.00 C641.59,274.00 642.75,276.55 640.44,295.50 C639.50,303.20 638.72,311.45 638.70,313.84 C638.67,318.22 640.25,320.44 642.75,319.52 C643.44,319.27 644.00,319.72 644.00,320.53 C644.00,321.34 644.45,322.00 645.00,322.00 C645.83,322.00 646.14,327.25 645.90,332.04 C645.92,331.19 645.93,330.22 645.91,329.13 ZM 571.99 363.64 C575.94,365.72 578.27,366.36 578.34,365.63 C578.83,366.63 578.99,367.68 579.00,368.93 L 579.00 368.93 C579.00,369.34 578.98,369.71 578.95,370.07 C578.46,374.72 574.26,377.64 553.00,389.19 C551.73,389.88 550.40,390.61 549.03,391.35 C550.32,390.65 551.58,389.96 552.79,389.31 C543.75,394.02 535.17,398.00 533.17,398.00 C532.22,398.00 530.67,398.90 529.73,400.00 C527.59,402.50 526.00,402.57 526.00,400.17 C526.00,399.16 526.32,398.01 526.72,397.61 C527.12,397.22 527.30,395.28 527.13,393.31 C526.84,389.87 520.04,379.90 515.33,375.99 C511.33,372.68 506.86,369.81 506.40,370.27 C506.13,370.53 504.97,374.24 503.81,378.51 C501.76,386.05 501.66,386.20 500.34,383.69 C499.33,381.75 498.97,375.23 498.90,357.33 L 498.81 333.56 L 501.85 330.84 C506.01,327.13 511.21,327.06 518.28,330.64 C525.77,334.42 556.29,351.11 557.61,352.14 C558.22,352.62 561.82,354.64 565.61,356.63 C572.12,360.04 575.57,362.12 577.33,364.13 C577.05,363.86 576.71,363.55 576.31,363.21 C573.80,361.07 564.70,356.02 554.65,351.17 C554.18,350.94 554.29,351.66 554.88,352.77 C556.45,355.71 561.75,359.90 564.83,360.64 C566.30,361.00 569.52,362.35 571.99,363.64 ZM 514.96 280.74 C501.83,280.68 487.46,280.60 474.39,280.51 C469.28,280.34 466.94,280.07 466.24,279.68 C463.51,278.16 464.40,276.65 470.32,272.74 C472.78,271.12 473.67,270.03 472.82,269.69 C472.10,269.40 495.66,269.12 525.19,269.08 L 578.88 269.00 L 575.65 274.75 L 575.09 275.73 C574.57,276.52 574.12,277.26 573.80,277.85 L 572.36 280.50 L 520.46 280.72 C518.56,280.73 516.73,280.73 514.96,280.74 ZM 564.67 291.74 C564.43,292.12 564.06,292.53 563.60,292.95 C562.94,293.47 562.02,294.07 560.99,294.78 L 560.54 295.08 C559.53,295.64 558.43,296.15 557.32,296.55 C556.79,296.74 556.02,296.90 554.92,297.05 L 506.31 296.95 C478.09,296.90 455.00,296.49 455.00,296.04 C455.00,295.59 455.83,294.20 456.84,292.95 L 458.68 290.68 L 511.97 290.20 C515.72,290.17 519.21,290.14 522.48,290.11 C542.82,290.21 558.07,290.41 563.16,290.66 C564.16,290.88 564.62,291.16 564.69,291.51 C564.70,291.58 564.70,291.66 564.67,291.74 ZM 610.77 332.92 L 612.45 335.85 L 616.07 331.92 C618.13,329.69 620.62,328.00 621.85,328.00 C624.92,328.00 624.47,326.75 620.73,324.93 C618.95,324.07 616.40,321.68 615.05,319.63 L 612.60 315.90 L 610.74 319.51 C609.47,321.98 607.56,323.71 604.69,324.96 C601.11,326.52 600.79,326.88 602.50,327.47 C607.85,329.32 609.22,330.22 610.77,332.92 ZM 642.34 232.50 C640.68,233.20 638.22,235.18 636.87,236.91 L 634.41 240.05 L 632.25 237.13 C631.07,235.52 628.72,233.60 627.05,232.86 C625.37,232.12 624.00,231.25 624.00,230.94 C624.00,230.63 625.60,229.61 627.55,228.68 C629.94,227.54 631.69,225.68 632.87,223.03 L 634.64 219.08 L 636.79 223.50 C638.11,226.21 640.17,228.55 642.14,229.57 L 645.35 231.23 ZM 677.00 410.73 C675.38,414.21 674.00,414.98 674.00,412.40 C674.00,411.52 672.61,409.50 670.91,407.91 L 667.82 405.03 L 670.91 402.42 C672.61,400.99 674.00,399.19 674.00,398.41 C674.00,397.64 674.45,397.00 675.00,397.00 C675.55,397.00 676.00,397.66 676.00,398.46 C676.00,399.26 677.54,401.15 679.43,402.65 C682.80,405.34 682.82,405.40 680.68,406.45 C679.48,407.03 677.83,408.96 677.00,410.73 ZM 454.51 404.05 C454.17,402.97 452.33,401.53 450.42,400.83 L 446.94 399.58 L 450.40 397.80 C452.30,396.82 454.14,395.12 454.50,394.01 C454.85,392.91 455.52,392.00 456.00,392.00 C456.48,392.00 457.15,392.91 457.50,394.01 C457.86,395.12 459.80,396.88 461.82,397.92 L 465.50 399.82 L 462.73 400.52 C461.21,400.91 459.12,402.30 458.09,403.61 C455.81,406.51 455.32,406.57 454.51,404.05 ZM 498.00 233.54 C498.00,235.94 496.26,235.19 495.59,232.49 C495.20,230.94 493.73,229.47 491.73,228.62 L 488.50 227.25 L 491.20 226.17 C492.69,225.57 494.81,223.38 495.91,221.29 C497.42,218.44 497.92,218.01 497.96,219.58 C498.00,221.67 500.82,224.80 504.50,226.83 C506.48,227.93 506.48,227.94 504.44,227.97 C502.00,228.01 498.00,231.46 498.00,233.54 ZM 669.25 256.99 C667.55,258.03 665.99,259.92 665.79,261.19 L 665.43 263.50 L 664.62 261.18 C664.18,259.91 662.47,258.04 660.81,257.03 C657.91,255.27 657.88,255.17 659.97,254.51 C661.16,254.13 662.95,252.48 663.95,250.85 L 665.75 247.88 L 666.35 250.27 C666.68,251.58 668.16,253.21 669.65,253.89 L 672.34 255.11 ZM 588.33 411.33 C586.27,409.20 586.25,409.05 588.01,408.50 C589.04,408.17 590.07,407.14 590.32,406.20 C590.68,404.83 590.79,404.80 590.88,406.06 C590.95,406.91 592.07,408.04 593.39,408.56 L 595.78 409.50 L 593.14 411.53 L 590.50 413.57 ZM 463.20 369.45 C462.11,368.22 462.17,367.69 463.50,366.36 C464.98,364.87 465.27,364.92 467.10,366.87 C468.70,368.60 468.79,369.00 467.54,369.00 C466.69,369.00 466.00,369.45 466.00,370.00 C466.00,371.42 464.72,371.17 463.20,369.45 ZM 644.60 339.99 C644.71,339.26 644.83,338.42 644.93,337.50 C645.23,337.05 645.45,336.43 645.61,335.58 C645.47,336.71 645.29,337.70 645.07,338.43 C644.91,338.96 644.75,339.48 644.60,339.99 ZM 620.47 436.39 C622.97,434.83 625.11,432.88 626.67,430.75 C624.98,433.26 623.19,434.87 620.47,436.39 ZM 609.00 442.20 C608.56,442.51 607.82,442.84 606.88,443.18 C606.96,443.14 607.04,443.11 607.12,443.07 C607.95,442.76 608.60,442.45 609.00,442.16 C609.70,441.66 610.91,440.97 612.29,440.28 C610.94,440.99 609.72,441.69 609.00,442.20 ZM 601.05 444.68 C600.44,444.80 599.83,444.90 599.23,444.98 C599.81,444.90 600.39,444.80 600.98,444.69 Z" fill="rgb(39,223,240)"/>
<path d="M 0.00 360.00 L 0.00 0.00 L 540.00 0.00 L 1080.00 0.00 L 1080.00 360.00 L 1080.00 720.00 L 540.00 720.00 L 0.00 720.00 L 0.00 360.00 ZM 599.15 444.99 C603.19,444.43 607.62,443.17 609.00,442.20 C610.38,441.23 613.53,439.57 616.00,438.52 C623.57,435.30 625.80,433.19 629.50,425.70 C632.14,420.35 633.43,415.93 634.51,408.50 C635.31,403.00 636.92,392.20 638.07,384.50 C639.23,376.80 640.61,365.77 641.15,360.00 C642.06,350.11 642.86,345.71 645.07,338.43 C646.32,334.31 646.27,322.00 645.00,322.00 C644.45,322.00 644.00,321.34 644.00,320.53 C644.00,319.72 643.44,319.27 642.75,319.52 C640.25,320.44 638.67,318.22 638.70,313.84 C638.72,311.45 639.50,303.20 640.44,295.50 C642.75,276.55 641.59,274.00 630.63,274.00 C626.36,274.00 624.00,272.68 624.00,270.30 C624.00,269.58 625.01,268.94 626.25,268.86 C628.25,268.74 628.28,268.68 626.50,268.31 C625.21,268.05 623.66,265.97 622.13,262.46 C620.47,258.65 618.67,256.34 616.13,254.76 L 612.50 252.50 L 556.50 252.24 C524.04,252.08 498.99,251.56 496.91,250.99 C493.46,250.05 491.48,248.21 478.37,233.74 C472.15,226.87 469.22,225.70 456.00,224.82 C449.67,224.40 441.12,223.63 437.00,223.09 C424.92,221.54 402.00,224.12 402.00,227.03 C402.00,227.46 401.15,227.59 400.10,227.32 C397.67,226.68 389.87,233.50 390.66,235.57 C390.97,236.35 390.76,237.00 390.20,237.00 C389.64,237.00 388.36,239.14 387.35,241.75 C385.62,246.20 385.49,251.75 385.21,331.00 C384.94,406.83 385.08,416.11 386.55,421.41 C388.53,428.54 393.29,436.03 397.45,438.53 C406.08,443.75 407.96,444.18 425.00,444.85 C454.02,445.99 591.20,446.11 599.15,444.99 ZM 677.00 410.73 C677.83,408.96 679.48,407.03 680.68,406.45 C682.82,405.40 682.80,405.34 679.43,402.65 C677.54,401.15 676.00,399.26 676.00,398.46 C676.00,397.66 675.55,397.00 675.00,397.00 C674.45,397.00 674.00,397.64 674.00,398.41 C674.00,399.19 672.61,400.99 670.91,402.42 L 667.82 405.03 L 670.91 407.91 C672.61,409.50 674.00,411.52 674.00,412.40 C674.00,414.98 675.38,414.21 677.00,410.73 ZM 356.90 359.89 C355.31,358.19 354.00,357.24 354.00,357.79 C354.00,358.34 352.97,359.78 351.71,361.00 L 349.42 363.20 L 351.94 365.96 L 354.47 368.71 L 357.13 365.86 L 359.80 363.00 L 356.90 359.89 ZM 359.03 317.19 C359.08,314.54 361.34,312.20 365.76,310.22 L 369.82 308.40 L 365.49 306.10 C362.88,304.72 360.69,302.66 359.96,300.90 C358.48,297.33 357.24,297.20 356.41,300.52 C356.06,301.91 354.20,304.34 352.27,305.93 L 348.78 308.81 L 351.14 310.06 C354.64,311.92 357.00,315.00 357.00,317.71 C357.00,320.39 358.98,319.89 359.03,317.19 ZM 669.25 256.99 L 672.34 255.11 L 669.65 253.89 C668.16,253.21 666.68,251.58 666.35,250.27 L 665.75 247.88 L 663.95 250.85 C662.95,252.48 661.16,254.13 659.97,254.51 C657.88,255.17 657.91,255.27 660.81,257.03 C662.47,258.04 664.18,259.91 664.62,261.18 L 665.43 263.50 L 665.79 261.19 C665.99,259.92 667.55,258.03 669.25,256.99 ZM 642.34 232.50 L 645.35 231.23 L 642.14 229.57 C640.17,228.55 638.11,226.21 636.79,223.50 L 634.64 219.08 L 632.87 223.03 C631.69,225.68 629.94,227.54 627.55,228.68 C625.60,229.61 624.00,230.63 624.00,230.94 C624.00,231.25 625.37,232.12 627.05,232.86 C628.72,233.60 631.07,235.52 632.25,237.13 L 634.41 240.05 L 636.87 236.91 C638.22,235.18 640.68,233.20 642.34,232.50 ZM 498.00 233.54 C498.00,231.46 502.00,228.01 504.44,227.97 C506.48,227.94 506.48,227.93 504.50,226.83 C500.82,224.80 498.00,221.67 497.96,219.58 C497.92,218.01 497.42,218.44 495.91,221.29 C494.81,223.38 492.69,225.57 491.20,226.17 L 488.50 227.25 L 491.73 228.62 C493.73,229.47 495.20,230.94 495.59,232.49 C496.26,235.19 498.00,235.94 498.00,233.54 ZM 571.99 363.64 C569.52,362.35 566.30,361.00 564.83,360.64 C561.75,359.90 556.45,355.71 554.88,352.77 C554.29,351.66 554.18,350.94 554.65,351.17 C564.70,356.02 573.80,361.07 576.31,363.21 C580.34,366.63 578.11,366.85 571.99,363.64 ZM 610.77 332.92 C609.22,330.22 607.85,329.32 602.50,327.47 C600.79,326.88 601.11,326.52 604.69,324.96 C607.56,323.71 609.47,321.98 610.74,319.51 L 612.60 315.90 L 615.05 319.63 C616.40,321.68 618.95,324.07 620.73,324.93 C624.47,326.75 624.92,328.00 621.85,328.00 C620.62,328.00 618.13,329.69 616.07,331.92 L 612.45 335.85 L 610.77 332.92 Z" fill="rgb(254,254,254)"/>
</g>
</svg>